HIERARCHY
ROOT Hips
{
	OFFSET	0.00	0.00	0.00
	CHANNELS 6 Xposition Yposition Zposition Zrotation Xrotation Yrotation
	JOINT LeftUpLeg
	{
		OFFSET	 0.126116	-0.014019	-0.065224
		CHANNELS 3 Zrotation Xrotation Yrotation
		JOINT LeftLeg
		{
			OFFSET	 0.000000	 0.000000	 0.569914
			CHANNELS 3 Zrotation Xrotation Yrotation
			JOINT LeftFoot
			{
				OFFSET	 0.000000	 0.000000	 0.544423
				CHANNELS 3 Zrotation Xrotation Yrotation
				JOINT LeftToeBase
				{
					OFFSET	 0.000000	 0.000000	 0.207117
					CHANNELS 3 Zrotation Xrotation Yrotation
					End Site
					{
						OFFSET	 0.000000	 0.000000	 0.207117
					}
				}
			}
		}
	}
	JOINT RightUpLeg
	{
		OFFSET	-0.124023	-0.008373	-0.065224
		CHANNELS 3 Zrotation Xrotation Yrotation
		JOINT RightLeg
		{
			OFFSET	 0.000000	 0.000000	 0.570047
			CHANNELS 3 Zrotation Xrotation Yrotation
			JOINT RightFoot
			{
				OFFSET	 0.000000	 0.000000	 0.544354
				CHANNELS 3 Zrotation Xrotation Yrotation
				JOINT RightToeBase
				{
					OFFSET	 0.000000	 0.000000	 0.207540
					CHANNELS 3 Zrotation Xrotation Yrotation
					End Site
					{
						OFFSET	 0.000000	 0.000000	 0.207540
					}
				}
			}
		}
	}
	JOINT Spine
	{
		OFFSET	 0.000184	-0.007763	 0.117403
		CHANNELS 3 Zrotation Xrotation Yrotation
		JOINT Spine1
		{
			OFFSET	 0.000000	 0.000000	 0.137269
			CHANNELS 3 Zrotation Xrotation Yrotation
			JOINT Spine2
			{
				OFFSET	 0.000000	 0.000000	 0.156879
				CHANNELS 3 Zrotation Xrotation Yrotation
				JOINT LeftShoulder
				{
					OFFSET	 0.080501	-0.002496	 0.160144
					CHANNELS 3 Zrotation Xrotation Yrotation
					JOINT LeftArm
					{
						OFFSET	 0.000000	 0.000000	 0.164363
						CHANNELS 3 Zrotation Xrotation Yrotation
						JOINT LeftForeArm
						{
							OFFSET	 0.000000	 0.000000	 0.364576
							CHANNELS 3 Zrotation Xrotation Yrotation
							JOINT LeftHand
							{
								OFFSET	 0.000000	 0.000000	 0.360812
								CHANNELS 3 Zrotation Xrotation Yrotation
								JOINT LeftHandIndex1
								{
									OFFSET	 0.000000	 0.000000	 0.086006
									CHANNELS 3 Zrotation Xrotation Yrotation
									JOINT LeftHandIndex2
									{
										OFFSET	 0.000000	 0.000000	 0.047236
										CHANNELS 3 Zrotation Xrotation Yrotation
										JOINT LeftHandIndex3
										{
											OFFSET	-0.004284	-0.000551	 0.038166
											CHANNELS 3 Zrotation Xrotation Yrotation
											End Site
											{
												OFFSET	-0.004284	-0.000551	 0.038166
											}
										}
									}
								}
							}
						}
					}
				}
				JOINT Neck
				{
					OFFSET	 0.000000	 0.000000	 0.176489
					CHANNELS 3 Zrotation Xrotation Yrotation
					JOINT Head
					{
						OFFSET	 0.000000	-0.001747	 0.077940
						CHANNELS 3 Zrotation Xrotation Yrotation
						End Site
						{
							OFFSET	 0.000000	-0.001747	 0.077940
						}
					}
				}
				JOINT RightShoulder
				{
					OFFSET	-0.080363	 0.000306	 0.159706
					CHANNELS 3 Zrotation Xrotation Yrotation
					JOINT RightArm
					{
						OFFSET	 0.000000	 0.000000	 0.164196
						CHANNELS 3 Zrotation Xrotation Yrotation
						JOINT RightForeArm
						{
							OFFSET	 0.000000	 0.000000	 0.365611
							CHANNELS 3 Zrotation Xrotation Yrotation
							JOINT RightHand
							{
								OFFSET	 0.000000	 0.000000	 0.360648
								CHANNELS 3 Zrotation Xrotation Yrotation
								JOINT RightHandIndex1
								{
									OFFSET	 0.000000	 0.000000	 0.069977
									CHANNELS 3 Zrotation Xrotation Yrotation
									JOINT RightHandIndex2
									{
										OFFSET	 0.000000	 0.000000	 0.052305
										CHANNELS 3 Zrotation Xrotation Yrotation
										JOINT RightHandIndex3
										{
											OFFSET	 0.009002	-0.000782	 0.042196
											CHANNELS 3 Zrotation Xrotation Yrotation
											End Site
											{
												OFFSET	 0.009002	-0.000782	 0.042196
											}
										}
									}
								}
							}
						}
					}
				}
			}
		}
	}
}
MOTION
Frames:    8
Frame Time: 0.03333334
-0.033847	 0.238581	 1.071576	 2.512101	 33.193580	-7.919926	 43.738160	-76.507300	-141.914600	 5.193955	-66.432230	 5.145140	 31.805880	 72.836460	-39.943030	-2.385832	 28.452790	-0.000001	 40.550540	-80.939980	-137.446300	-14.491230	-69.657510	-8.771474	-1.366274	 72.183270	 21.496150	 2.384659	 28.388700	-0.000001	 23.030870	 13.833230	 0.926232	-1.972043	 18.989530	 1.670159	-3.246307	-1.747084	 3.543628	-99.195390	 68.205860	 156.684100	 4.109273	-8.566585	-50.447050	-1.872668	-0.377368	-4.535977	-2.050835	-54.247740	 2.332103	-2.027600	 6.559038	 9.033609	-5.188889	 0.308190	 3.541030	-5.234859	 0.342567	 0.430617	 0.476063	 18.224520	-6.312650	-1.651871	-29.269040	-1.555172	 97.485850	 64.653330	-159.138300	-12.539630	 7.154354	 60.786220	-12.867610	-2.541480	 25.283990	-16.815650	-51.485900	-8.054420	 1.803333	 3.979147	-15.098590	 4.898592	 3.004813	-9.310344	 5.224449	 0.395017	 2.014677
-0.030703	 0.237284	 1.090571	 2.385370	 31.936420	-7.452611	 37.488370	-73.858720	-148.344500	 4.345271	-63.628290	 4.268197	 30.394870	 71.812400	-38.281640	-2.385832	 28.452790	-0.000001	 26.116430	-78.706340	-151.171500	-13.621420	-66.838150	-7.800789	-1.026086	 71.231920	 21.151330	 2.384659	 28.388700	-0.000001	 19.351710	 13.403070	 0.723082	-1.700850	 18.851160	 1.308166	-3.560007	-2.474411	 3.318421	-98.885610	 68.363630	 157.399800	 4.735830	-6.174789	-50.905410	 1.285685	-0.903537	-6.269656	-2.100139	-49.307610	 0.138937	-2.027600	 6.559038	 9.033609	-5.188889	 0.308190	 3.541030	-5.234859	 0.342567	 0.430617	-0.111735	 14.558270	-4.911958	-2.424942	-25.596680	-2.342406	 97.288360	 64.439310	-159.871400	-13.828930	 7.272889	 58.665010	-14.547650	-4.284817	 30.636940	-15.972880	-46.708660	-4.346375	 1.803333	 3.979147	-15.098590	 4.898592	 3.004813	-9.310344	 5.224449	 0.395017	 2.014677
-0.026738	 0.234468	 1.113963	 2.384618	 30.388960	-6.901564	 31.883920	-70.387390	-154.091200	 3.712148	-60.098200	 3.580626	 28.511950	 70.478920	-36.157680	-2.385832	 28.452790	-0.000001	 14.623370	-75.365540	-161.675800	-12.863190	-63.371380	-6.906750	-0.498668	 70.064990	 20.600300	 2.384659	 28.388700	-0.000001	 14.365670	 12.775960	 0.481374	-1.343639	 18.730020	 0.878309	-4.005877	-3.490227	 2.984120	-98.213120	 69.136120	 158.342800	 5.545098	-2.800959	-51.773190	 4.995971	-1.723875	-8.208836	-2.618203	-43.236860	-3.361671	-2.027600	 6.559038	 9.033609	-5.188889	 0.308190	 3.541030	-5.234859	 0.342567	 0.430617	-0.668503	 9.148341	-3.652437	-3.106196	-20.207710	-2.861296	 96.965450	 64.101940	-161.026600	-15.591120	 7.275607	 56.498180	-16.262820	-6.890364	 37.000500	-15.507950	-40.138910	 0.323334	 1.803333	 3.979147	-15.098590	 4.898592	 3.004813	-9.310344	 5.224449	 0.395017	 2.014677
-0.023696	 0.231934	 1.131183	 2.334657	 29.186470	-6.404319	 28.807640	-67.666970	-157.396700	 3.349786	-57.477780	 3.177028	 27.267710	 69.559140	-34.677190	-2.385833	 28.452760	 0.000004	 8.708674	-72.586330	-166.900800	-12.489380	-60.748970	-6.415126	-0.023049	 69.244330	 20.113640	 2.384659	 28.388700	-0.000001	 10.384750	 12.269750	 0.305902	-1.148208	 18.711500	 0.641183	-4.333524	-4.424127	 2.673118	-97.475410	 70.187300	 159.084700	 6.296138	 0.069680	-52.482870	 7.617736	-2.423701	-9.509616	-3.203644	-39.001260	-6.350996	-2.027600	 6.559038	 9.033609	-5.188889	 0.308190	 3.541030	-5.234859	 0.342567	 0.430617	-0.958152	 4.441443	-2.668443	-3.596620	-15.586460	-3.289349	 96.681480	 64.299840	-161.608100	-16.955690	 8.124499	 55.006690	-17.518360	-9.212351	 41.387730	-15.527170	-35.149030	 3.339059	 1.803333	 3.979147	-15.098590	 4.898592	 3.004813	-9.310344	 5.224449	 0.395017	 2.014677
-0.020727	 0.229047	 1.149834	 2.216369	 27.733780	-5.770350	 25.997030	-64.528700	-160.596700	 3.205136	-54.600930	 2.953488	 25.765980	 68.629820	-33.014000	-2.385833	 28.452760	 0.000004	 3.504949	-69.263330	-171.367500	-12.306580	-57.785850	-6.067016	 0.339142	 68.381030	 19.790240	 2.384659	 28.388700	-0.000001	 5.744587	 11.796340	 0.154859	-0.861029	 18.822920	 0.310357	-4.681304	-5.599682	 2.371610	-96.091340	 72.433650	 159.846900	 7.191528	 4.055754	-54.055240	 10.485790	-3.289700	-10.853580	-3.939393	-34.580700	-9.473482	-2.027600	 6.559038	 9.033609	-5.188889	 0.308190	 3.541030	-5.234859	 0.342567	 0.430617	-1.206920	-1.195031	-2.255750	-3.911871	-10.080060	-3.138101	 95.974720	 65.575110	-162.408000	-18.423950	 10.147850	 54.560710	-18.793310	-12.013940	 45.651210	-15.489730	-30.342250	 6.180705	 1.803333	 3.979147	-15.098590	 4.898592	 3.004813	-9.310344	 5.224449	 0.395017	 2.014677
-0.018323	 0.225345	 1.168568	 2.102911	 26.174920	-5.145042	 23.593070	-61.198190	-163.440500	 3.210797	-51.635720	 2.845591	 23.862910	 67.680980	-31.025240	-2.385833	 28.452750	 0.000004	-0.610296	-65.668080	-174.726800	-11.700640	-54.725880	-5.358757	 0.146293	 67.536060	 19.725520	 2.384659	 28.388700	-0.000001	 0.904995	 11.314750	 0.088880	-0.491229	 18.977580	-0.072790	-5.037859	-6.891498	 2.095000	-94.400170	 75.022610	 160.554900	 8.360238	 8.158477	-56.149560	 13.313120	-4.237144	-12.097660	-4.579432	-30.596580	-12.430870	-2.027600	 6.559038	 9.033609	-5.188889	 0.308190	 3.541030	-5.234859	 0.342567	 0.430617	-1.441929	-7.429897	-2.298557	-4.173140	-4.063143	-2.617817	 95.123540	 67.239170	-163.282100	-19.931480	 12.411160	 54.465710	-19.693730	-14.990130	 49.855930	-15.351790	-26.069860	 8.569619	 1.803333	 3.979147	-15.098590	 4.898592	 3.004813	-9.310344	 5.224449	 0.395017	 2.014677
-0.016232	 0.220455	 1.185993	 2.121730	 24.609800	-4.559386	 21.318630	-57.840390	-166.044300	 3.246151	-48.679440	 2.794141	 21.862260	 66.820700	-28.871340	-2.385833	 28.452750	 0.000004	-3.611501	-61.955750	-176.991200	-10.645430	-51.772750	-4.325011	-0.161984	 66.950950	 19.309390	 2.384659	 28.388700	-0.000001	-3.882804	 10.753430	 0.009154	-0.108870	 19.079920	-0.481954	-5.385048	-8.231473	 1.794482	-93.028500	 76.902390	 161.373400	 9.758932	 11.497800	-58.182390	 15.991650	-5.204864	-13.197580	-4.999269	-27.329870	-15.107300	-2.027600	 6.559038	 9.033609	-5.188889	 0.308190	 3.541030	-5.234859	 0.342567	 0.430617	-1.663597	-13.115410	-2.390228	-4.471938	 1.393014	-2.097082	 94.317730	 68.800620	-164.153100	-21.486480	 14.564820	 54.367600	-20.153610	-17.924270	 53.862640	-15.014520	-22.517270	 10.420820	 1.803333	 3.979147	-15.098590	 4.898592	 3.004813	-9.310344	 5.224449	 0.395017	 2.014677
-0.014012	 0.214168	 1.201886	 2.515814	 23.255420	-4.056656	 19.733380	-54.550710	-167.811600	 3.421499	-45.700230	 2.701233	 20.493410	 66.048590	-27.135130	-2.385833	 28.452750	 0.000004	-5.888043	-58.312560	-178.412700	-9.519365	-48.907290	-3.298526	 0.103564	 66.439120	 18.218160	 2.384659	 28.388700	-0.000001	-8.368282	 9.847791	-0.314022	 0.119455	 18.789280	-0.758193	-5.685825	-9.483532	 1.228377	-93.802020	 75.475060	 163.014000	 10.983270	 12.440140	-58.428090	 18.451120	-6.135445	-14.127910	-4.848629	-24.704410	-17.560850	-2.027600	 6.559038	 9.033609	-5.188889	 0.308190	 3.541030	-5.234859	 0.342567	 0.430617	-1.667386	-14.442360	-1.197739	-4.777870	 2.838270	-2.651087	 93.862890	 69.469610	-164.949600	-22.988550	 16.635780	 53.500550	-20.399520	-20.631710	 57.203890	-14.504080	-19.676040	 11.829230	 1.803333	 3.979147	-15.098590	 4.898592	 3.004813	-9.310344	 5.224449	 0.395017	 2.014677
